<svg fill="#052B61" width="24" height="24" viewBox="0 0 24 24" id="15" xmlns="http://www.w3.org/2000/svg"><path fill="#E2E9F3" d="M0 12C0 5.373 5.373 0 12 0s12 5.373 12 12-5.373 12-12 12S0 18.627 0 12Z"/><path fill="#052B6" d="M17.46 11.343c0 .34.098.606.292.8.194.195.485.292.873.292.4 0 .698-.097.892-.291.194-.195.291-.462.291-.801V8.594h2.312v2.767c0 1.104-.31 1.966-.928 2.584-.607.607-1.462.91-2.567.91-.643 0-1.159-.078-1.547-.236a1.88 1.88 0 0 1-.855-.728 2.25 2.25 0 0 1-.91.728c-.364.158-.825.237-1.384.237-.327 0-.594-.025-.8-.073a1.742 1.742 0 0 1-.492-.182c-.036.91-.273 1.71-.71 2.402a4.357 4.357 0 0 1-1.784 1.62c-.752.389-1.62.583-2.602.583h-.728c-1.578 0-2.797-.455-3.659-1.365-.85-.898-1.274-2.16-1.274-3.786v-3.64h2.312V14c0 .922.212 1.614.637 2.075.424.473 1.086.71 1.984.71h.728c.582 0 1.08-.103 1.492-.31.425-.206.746-.503.965-.891.23-.389.346-.856.346-1.402V8.594h2.311v2.749c0 .352.097.625.292.819.194.182.51.273.946.273.412 0 .722-.091.928-.273.219-.194.328-.467.328-.82V8.995h2.311v2.349Z"/></svg>