<svg xmlns="http://www.w3.org/2000/svg" width="24" height="24" fill="none"><path fill="#4C9AFF" fill-opacity="0.5" d="M18 13a6 6 0 100-12 6 6 0 000 12z"></path><path fill="currentColor" d="M11.796 1.25c1.013 0 1.922.554 2.396 1.412.656.25 1.271.604 1.825 1.05a.75.75 0 01-.94 1.168 5.247 5.247 0 00-1.736-.927 6.08 6.08 0 00-2.896-.05l-.247.065A5.26 5.26 0 006.55 8.754l-.004.216v2.89c0 .668-.239 1.596-.566 2.242l-.111.205-1.15 1.91c-.461.766-.173 1.545.675 1.832a20.173 20.173 0 0012.797-.001 1.252 1.252 0 00.734-1.715l-.062-.116-1.157-1.922c-.37-.641-.66-1.7-.66-2.435a.75.75 0 011.493-.102l.007.102c0 .416.174 1.096.376 1.525l.077.148 1.15 1.911c.906 1.51.18 3.477-1.485 4.027a21.614 21.614 0 01-3.308.823 3.76 3.76 0 01-3.56 2.576 3.76 3.76 0 01-3.559-2.573 21.838 21.838 0 01-3.321-.827c-1.697-.574-2.392-2.316-1.573-3.867l.09-.16 1.149-1.907c.216-.362.415-1.033.456-1.508l.008-.168V8.97a6.758 6.758 0 014.356-6.312 2.736 2.736 0 012.394-1.408zm1.759 19.268l-.085.007a21.66 21.66 0 01-3.433-.006 2.26 2.26 0 001.759.852 2.25 2.25 0 001.759-.853zm4.593-15.931l.102-.007 3.047.002.124.018.106.033.086.04.088.058.08.07c.037.037.07.078.098.12l.052.095c.03.066.052.137.062.212L22 5.33v3a.75.75 0 01-1.493.102L20.5 8.33V7.14l-2.92 2.92a.75.75 0 01-1.088-.03l-.066-.084-1.093-1.639-2.553 2.553a.75.75 0 01-.976.073l-.084-.073a.75.75 0 01-.073-.976l.073-.084 3.2-3.2a.75.75 0 011.089.03l.065.084 1.092 1.638 2.272-2.272H18.25a.75.75 0 01-.743-.648L17.5 5.33a.75.75 0 01.648-.743z"></path></svg>