<?xml version="1.0" encoding="utf-8"?><svg xmlns="http://www.w3.org/2000/svg" xmlns:xlink="http://www.w3.org/1999/xlink"><symbol fill="none" viewBox="0 0 24 24" id="00" xmlns="http://www.w3.org/2000/svg"><path fill="var(--alphabet-svg-bg)" d="M0 12C0 5.373 5.373 0 12 0s12 5.373 12 12-5.373 12-12 12S0 18.627 0 12Z"/><path fill="var(--alphabet-svg-color)" d="M11.11 14.56a55.108 55.108 0 0 1-.32-3.22 51.88 51.88 0 0 1-.08-3.12V5.48h2.64v2.74a51.88 51.88 0 0 1-.08 3.12 47.279 47.279 0 0 1-.34 3.22h-1.82Zm.88 3.96c-.48 0-.847-.12-1.1-.36-.253-.24-.38-.613-.38-1.12 0-.507.12-.867.36-1.08.253-.213.627-.32 1.12-.32.507 0 .88.107 1.12.32.253.213.38.573.38 1.08 0 .507-.127.88-.38 1.12-.253.24-.627.36-1.12.36Z"/></symbol><symbol fill="none" viewBox="0 0 24 24" id="01" xmlns="http://www.w3.org/2000/svg"><path fill="var(--alphabet-svg-bg)" d="M0 12C0 5.373 5.373 0 12 0s12 5.373 12 12-5.373 12-12 12S0 18.627 0 12Z"/><path fill="var(--alphabet-svg-color)" d="M10.72 5.56h2.56v12.88h-2.56V5.56Z"/></symbol><symbol fill="none" viewBox="0 0 24 24" id="02" xmlns="http://www.w3.org/2000/svg"><path fill="var(--alphabet-svg-bg)" d="M0 12C0 5.373 5.373 0 12 0s12 5.373 12 12-5.373 12-12 12S0 18.627 0 12Z"/><path fill="var(--alphabet-svg-color)" d="M15.31 12.78c.333 0 .6-.087.8-.26.213-.187.32-.44.32-.76v-3.2h2.54v3.34c0 1.107-.327 1.973-.98 2.6s-1.54.94-2.66.94H8.75c-1.213 0-2.14-.313-2.78-.94-.627-.64-.94-1.553-.94-2.74v-3.2h2.54v2.86c0 .453.1.793.3 1.02.213.227.547.34 1 .34h6.44Zm-4.66 6.52v-2.28h2.72v2.28h-2.72Z"/></symbol><symbol fill="none" viewBox="0 0 24 24" id="03" xmlns="http://www.w3.org/2000/svg"><path fill="var(--alphabet-svg-bg)" d="M0 12C0 5.373 5.373 0 12 0s12 5.373 12 12-5.373 12-12 12S0 18.627 0 12Z"/><path fill="var(--alphabet-svg-color)" d="M15.31 11.78c.333 0 .6-.087.8-.26.213-.187.32-.44.32-.76v-3.2h2.54v3.34c0 1.107-.327 1.973-.98 2.6s-1.54.94-2.66.94H8.75c-1.213 0-2.14-.313-2.78-.94-.627-.64-.94-1.553-.94-2.74v-3.2h2.54v2.86c0 .453.1.793.3 1.02.213.227.547.34 1 .34h6.44Zm-4.44 8.66v-2.18h2.28v2.18h-2.28Zm1.04-2.14v-2.28h2.92v2.28h-2.92Zm-2.72 0v-2.28h2.92v2.28H9.19Z"/></symbol><symbol fill="none" viewBox="0 0 24 24" id="04" xmlns="http://www.w3.org/2000/svg"><path fill="var(--alphabet-svg-bg)" d="M0 12C0 5.373 5.373 0 12 0s12 5.373 12 12-5.373 12-12 12S0 18.627 0 12Z"/><path fill="var(--alphabet-svg-color)" d="M15.31 14.36c.333 0 .6-.087.8-.26.213-.187.32-.44.32-.76v-3.2h2.54v3.34c0 1.107-.327 1.973-.98 2.6s-1.54.94-2.66.94H8.75c-1.213 0-2.14-.313-2.78-.94-.627-.64-.94-1.553-.94-2.74v-3.2h2.54V13c0 .453.1.793.3 1.02.213.227.547.34 1 .34h6.44Zm-3.4-5.1V6.98h2.92v2.28h-2.92Zm-2.72 0V6.98h2.92v2.28H9.19Z"/></symbol><symbol fill="none" viewBox="0 0 24 24" id="05" xmlns="http://www.w3.org/2000/svg"><path fill="var(--alphabet-svg-bg)" d="M0 12C0 5.373 5.373 0 12 0s12 5.373 12 12-5.373 12-12 12S0 18.627 0 12Z"/><path fill="var(--alphabet-svg-color)" d="M15.31 15.43c.333 0 .6-.087.8-.26.213-.187.32-.44.32-.76v-3.2h2.54v3.34c0 1.107-.327 1.973-.98 2.6s-1.54.94-2.66.94H8.75c-1.213 0-2.14-.313-2.78-.94-.627-.64-.94-1.553-.94-2.74v-3.2h2.54v2.86c0 .453.1.793.3 1.02.213.227.547.34 1 .34h6.44Zm-4.5-7.34V5.91h2.4v2.18h-2.4Zm1.1 2.24V8.05h2.92v2.28h-2.92Zm-2.72 0V8.05h2.92v2.28H9.19Z"/></symbol><symbol fill="none" viewBox="0 0 24 24" id="06" xmlns="http://www.w3.org/2000/svg"><path fill="var(--alphabet-svg-bg)" d="M0 12C0 5.373 5.373 0 12 0s12 5.373 12 12-5.373 12-12 12S0 18.627 0 12Z"/><path fill="var(--alphabet-svg-color)" d="M9.42 14.83c0 .8.247 1.38.74 1.74.493.36 1.28.54 2.36.54h4.4l-.22 2.66h-4.32c-1.84 0-3.22-.393-4.14-1.18-.907-.787-1.36-1.947-1.36-3.48 0-1.213.333-2.293 1-3.24.667-.947 1.76-1.76 3.28-2.44l2.96-1.36c-.12-.347-.247-.6-.38-.76a.826.826 0 0 0-.46-.34c-.173-.067-.427-.1-.76-.1H7.76l.3-2.64H13c.787 0 1.433.147 1.94.44.507.28.933.767 1.28 1.46.36.693.66 1.68.9 2.96l-4.94 2.38c-1.053.52-1.78 1.027-2.18 1.52-.387.507-.58 1.12-.58 1.84Zm3.32.28v-2.28h2.72v2.28h-2.72Z"/></symbol><symbol fill="none" viewBox="0 0 24 24" id="07" xmlns="http://www.w3.org/2000/svg"><path fill="var(--alphabet-svg-bg)" d="M0 12C0 5.373 5.373 0 12 0s12 5.373 12 12-5.373 12-12 12S0 18.627 0 12Z"/><path fill="var(--alphabet-svg-color)" d="M13.44 16.07v-1.7h1.76v1.7h-1.76Zm.8-1.64v-1.86h2.26v1.86h-2.26Zm-2.12 0v-1.86h2.28v1.86h-2.28Zm-2.7.4c0 .8.247 1.38.74 1.74.493.36 1.28.54 2.36.54h4.4l-.22 2.66h-4.32c-1.84 0-3.22-.393-4.14-1.18-.907-.787-1.36-1.947-1.36-3.48 0-1.213.333-2.293 1-3.24.667-.947 1.76-1.76 3.28-2.44l2.96-1.36c-.12-.347-.247-.6-.38-.76a.826.826 0 0 0-.46-.34c-.173-.067-.427-.1-.76-.1H7.76l.3-2.64H13c.787 0 1.433.147 1.94.44.507.28.933.767 1.28 1.46.36.693.66 1.68.9 2.96l-4.94 2.38c-1.053.52-1.78 1.027-2.18 1.52-.387.507-.58 1.12-.58 1.84Z"/></symbol><symbol fill="none" viewBox="0 0 24 24" id="08" xmlns="http://www.w3.org/2000/svg"><path fill="var(--alphabet-svg-bg)" d="M0 12C0 5.373 5.373 0 12 0s12 5.373 12 12-5.373 12-12 12S0 18.627 0 12Z"/><path fill="var(--alphabet-svg-color)" d="M9.42 14.83c0 .8.247 1.38.74 1.74.493.36 1.28.54 2.36.54h4.4l-.22 2.66h-4.32c-1.84 0-3.22-.393-4.14-1.18-.907-.787-1.36-1.947-1.36-3.48 0-1.213.333-2.293 1-3.24.667-.947 1.76-1.76 3.28-2.44l2.96-1.36c-.12-.347-.247-.6-.38-.76a.826.826 0 0 0-.46-.34c-.173-.067-.427-.1-.76-.1H7.76l.3-2.64H13c.787 0 1.433.147 1.94.44.507.28.933.767 1.28 1.46.36.693.66 1.68.9 2.96l-4.94 2.38c-1.053.52-1.78 1.027-2.18 1.52-.387.507-.58 1.12-.58 1.84Z"/></symbol><symbol fill="none" viewBox="0 0 24 24" id="09" xmlns="http://www.w3.org/2000/svg"><path fill="var(--alphabet-svg-bg)" d="M0 12C0 5.373 5.373 0 12 0s12 5.373 12 12-5.373 12-12 12S0 18.627 0 12Z"/><path fill="var(--alphabet-svg-color)" d="M9.42 16.48c0 .8.247 1.38.74 1.74.493.36 1.28.54 2.36.54h4.4l-.22 2.66h-4.32c-1.84 0-3.22-.393-4.14-1.18-.907-.787-1.36-1.947-1.36-3.48 0-1.213.333-2.293 1-3.24.667-.947 1.76-1.76 3.28-2.44l2.96-1.36c-.12-.347-.247-.6-.38-.76a.826.826 0 0 0-.46-.34c-.173-.067-.427-.1-.76-.1H7.76l.3-2.64H13c.787 0 1.433.147 1.94.44.507.28.933.767 1.28 1.46.36.693.66 1.68.9 2.96l-4.94 2.38c-1.053.52-1.78 1.027-2.18 1.52-.387.507-.58 1.12-.58 1.84Zm.7-11.62V2.58h2.72v2.28h-2.72Z"/></symbol><symbol fill="none" viewBox="0 0 24 24" id="10" xmlns="http://www.w3.org/2000/svg"><path fill="var(--alphabet-svg-bg)" d="M0 12C0 5.373 5.373 0 12 0s12 5.373 12 12-5.373 12-12 12S0 18.627 0 12Z"/><path fill="var(--alphabet-svg-color)" d="m11.82 6.76 3.56 4.2c.493.573.84 1.093 1.04 1.56.2.467.3.96.3 1.48 0 .947-.333 1.727-1 2.34-.667.6-1.607.9-2.82.9H7.48l-.2-2.66h5.5c.427 0 .747-.067.96-.2.227-.133.34-.32.34-.56a.98.98 0 0 0-.14-.5c-.093-.173-.267-.407-.52-.7L9.98 8.58l1.84-1.82Z"/></symbol><symbol fill="none" viewBox="0 0 24 24" id="11" xmlns="http://www.w3.org/2000/svg"><path fill="var(--alphabet-svg-bg)" d="M0 12C0 5.373 5.373 0 12 0s12 5.373 12 12-5.373 12-12 12S0 18.627 0 12Z"/><path fill="var(--alphabet-svg-color)" d="m11.82 8.85 3.56 4.2c.493.573.84 1.093 1.04 1.56.2.467.3.96.3 1.48 0 .947-.333 1.727-1 2.34-.667.6-1.607.9-2.82.9H7.48l-.2-2.66h5.5c.427 0 .747-.067.96-.2.227-.133.34-.32.34-.56a.98.98 0 0 0-.14-.5c-.093-.173-.267-.407-.52-.7l-3.44-4.04 1.84-1.82Zm-1.68-1.9V4.67h2.72v2.28h-2.72Z"/></symbol><symbol fill="none" viewBox="0 0 24 24" id="12" xmlns="http://www.w3.org/2000/svg"><path fill="var(--alphabet-svg-bg)" d="M0 12C0 5.373 5.373 0 12 0s12 5.373 12 12-5.373 12-12 12S0 18.627 0 12Z"/><path fill="var(--alphabet-svg-color)" d="M14.13 12.31c0 1.093-.22 2.053-.66 2.88a4.63 4.63 0 0 1-1.88 1.94c-.813.467-1.767.7-2.86.7h-.64l-.22-2.66h.82c.92 0 1.633-.253 2.14-.76.507-.493.76-1.193.76-2.1V6.17h2.54v6.14Z"/></symbol><symbol fill="none" viewBox="0 0 24 24" id="13" xmlns="http://www.w3.org/2000/svg"><path fill="var(--alphabet-svg-bg)" d="M0 12C0 5.373 5.373 0 12 0s12 5.373 12 12-5.373 12-12 12S0 18.627 0 12Z"/><path fill="var(--alphabet-svg-color)" d="M14.13 13.99c0 1.093-.22 2.053-.66 2.88a4.63 4.63 0 0 1-1.88 1.94c-.813.467-1.767.7-2.86.7h-.64l-.22-2.66h.82c.92 0 1.633-.253 2.14-.76.507-.493.76-1.193.76-2.1V7.85h2.54v6.14Zm-2.72-7.22V4.49h2.72v2.28h-2.72Z"/></symbol><symbol fill="none" viewBox="0 0 24 24" id="14" xmlns="http://www.w3.org/2000/svg"><path fill="var(--alphabet-svg-bg)" d="M0 12C0 5.373 5.373 0 12 0s12 5.373 12 12-5.373 12-12 12S0 18.627 0 12Z"/><path fill="var(--alphabet-svg-color)" d="M14.4 16.06c0 1.093-.22 2.053-.66 2.88a4.63 4.63 0 0 1-1.88 1.94c-.813.467-1.767.7-2.86.7h-.64l-.22-2.66h.82c.92 0 1.633-.253 2.14-.76.507-.493.76-1.193.76-2.1V9.92h2.54v6.14ZM11.84 6.1V3.92h2.4V6.1h-2.4Zm1.1 2.24V6.06h2.92v2.28h-2.92Zm-2.72 0V6.06h2.92v2.28h-2.92Z"/></symbol><symbol fill="none" viewBox="0 0 24 24" id="15" xmlns="http://www.w3.org/2000/svg"><path fill="var(--alphabet-svg-bg)" d="M0 12C0 5.373 5.373 0 12 0s12 5.373 12 12-5.373 12-12 12S0 18.627 0 12Z"/><path fill="var(--alphabet-svg-color)" d="M17.46 11.343c0 .34.098.606.292.8.194.195.485.292.873.292.4 0 .698-.097.892-.291.194-.195.291-.462.291-.801V8.594h2.312v2.767c0 1.104-.31 1.966-.928 2.584-.607.607-1.462.91-2.567.91-.643 0-1.159-.078-1.547-.236a1.88 1.88 0 0 1-.855-.728 2.25 2.25 0 0 1-.91.728c-.364.158-.825.237-1.384.237-.327 0-.594-.025-.8-.073a1.742 1.742 0 0 1-.492-.182c-.036.91-.273 1.71-.71 2.402a4.357 4.357 0 0 1-1.784 1.62c-.752.389-1.62.583-2.602.583h-.728c-1.578 0-2.797-.455-3.659-1.365-.85-.898-1.274-2.16-1.274-3.786v-3.64h2.312V14c0 .922.212 1.614.637 2.075.424.473 1.086.71 1.984.71h.728c.582 0 1.08-.103 1.492-.31.425-.206.746-.503.965-.891.23-.389.346-.856.346-1.402V8.594h2.311v2.749c0 .352.097.625.292.819.194.182.51.273.946.273.412 0 .722-.091.928-.273.219-.194.328-.467.328-.82V8.995h2.311v2.349Z"/></symbol><symbol fill="none" viewBox="0 0 24 24" id="16" xmlns="http://www.w3.org/2000/svg"><path fill="var(--alphabet-svg-bg)" d="M0 12C0 5.373 5.373 0 12 0s12 5.373 12 12-5.373 12-12 12S0 18.627 0 12Z"/><path fill="var(--alphabet-svg-color)" d="M17.46 12.173c0 .34.098.607.292.8.194.195.485.292.873.292.4 0 .698-.097.892-.291.194-.194.291-.461.291-.801V9.425h2.312v2.766c0 1.104-.31 1.966-.928 2.585-.607.606-1.462.91-2.567.91-.643 0-1.159-.08-1.547-.237a1.88 1.88 0 0 1-.855-.728 2.25 2.25 0 0 1-.91.728c-.364.158-.825.237-1.384.237-.327 0-.594-.024-.8-.073a1.747 1.747 0 0 1-.492-.182c-.036.91-.273 1.71-.71 2.403a4.357 4.357 0 0 1-1.784 1.62c-.752.388-1.62.582-2.602.582h-.728c-1.578 0-2.797-.455-3.659-1.365-.85-.898-1.274-2.16-1.274-3.786v-3.64h2.312v3.585c0 .922.212 1.614.637 2.075.424.473 1.086.71 1.984.71h.728c.582 0 1.08-.103 1.492-.31.425-.206.746-.503.965-.891.23-.389.346-.856.346-1.402V9.424h2.311v2.749c0 .352.097.625.292.819.194.182.51.273.946.273.412 0 .722-.091.928-.273.219-.194.328-.467.328-.82V9.825h2.311v2.349Zm-2.257-6.025V4.164h2.185v1.984h-2.185Zm1.002 2.039V6.112h2.657v2.075h-2.657Zm-2.476 0V6.112h2.658v2.075h-2.658Z"/></symbol><symbol fill="none" viewBox="0 0 24 24" id="17" xmlns="http://www.w3.org/2000/svg"><path fill="var(--alphabet-svg-bg)" d="M0 12C0 5.373 5.373 0 12 0s12 5.373 12 12-5.373 12-12 12S0 18.627 0 12Z"/><path fill="var(--alphabet-svg-color)" d="M18.29 13.298c.534 0 .947-.134 1.239-.401.304-.267.456-.644.456-1.13 0-.304-.061-.571-.183-.802a1.26 1.26 0 0 0-.51-.529 1.512 1.512 0 0 0-.747-.182c-.499 0-1.021.249-1.568.747-.535.486-1.149 1.252-1.841 2.297h3.153Zm-5.798-1.167c0 .243.024.42.073.529.06.11.176.207.347.292 1.032-1.775 2.005-3.057 2.916-3.847.912-.79 1.884-1.185 2.917-1.185.693 0 1.307.164 1.841.492.547.329.967.784 1.258 1.368.304.57.456 1.233.456 1.987 0 .802-.164 1.5-.492 2.096a3.426 3.426 0 0 1-1.404 1.386c-.608.316-1.319.474-2.133.474h-3.81c-.51 0-.942-.03-1.294-.091-.34-.073-.572-.158-.693-.256-.037.936-.274 1.757-.711 2.461a4.286 4.286 0 0 1-1.787 1.66c-.753.388-1.622.583-2.606.583h-.73c-1.58 0-2.801-.456-3.664-1.368-.85-.899-1.276-2.163-1.276-3.791v-3.646h2.315v3.59c0 .925.213 1.617.638 2.08.426.473 1.088.71 1.987.71h.73c.583 0 1.081-.103 1.494-.31.426-.206.748-.504.967-.893.23-.389.346-.857.346-1.404V9.452h2.315v2.68Z"/></symbol><symbol fill="none" viewBox="0 0 24 24" id="18" xmlns="http://www.w3.org/2000/svg"><path fill="var(--alphabet-svg-bg)" d="M0 12C0 5.373 5.373 0 12 0s12 5.373 12 12-5.373 12-12 12S0 18.627 0 12Z"/><path fill="var(--alphabet-svg-color)" d="M18.29 13.711c.534 0 .947-.134 1.239-.401.304-.268.456-.644.456-1.13 0-.304-.061-.572-.183-.803a1.26 1.26 0 0 0-.51-.528 1.512 1.512 0 0 0-.747-.182c-.499 0-1.021.249-1.568.747-.535.486-1.149 1.252-1.841 2.297h3.153Zm-5.798-1.167c0 .243.024.42.073.529.06.11.176.207.347.292 1.032-1.775 2.005-3.057 2.916-3.847.912-.79 1.884-1.185 2.917-1.185.693 0 1.307.164 1.841.492a3.25 3.25 0 0 1 1.258 1.368c.304.57.456 1.233.456 1.987 0 .802-.164 1.5-.492 2.096a3.427 3.427 0 0 1-1.404 1.386c-.608.316-1.319.474-2.133.474h-3.81c-.51 0-.942-.03-1.294-.092-.34-.072-.572-.158-.693-.255-.037.936-.274 1.756-.711 2.461a4.286 4.286 0 0 1-1.787 1.66c-.753.388-1.622.583-2.606.583h-.73c-1.58 0-2.801-.456-3.664-1.368-.85-.899-1.276-2.163-1.276-3.791v-3.647h2.315v3.592c0 .923.213 1.616.638 2.078.426.474 1.088.711 1.987.711h.73c.583 0 1.081-.103 1.494-.31.426-.206.748-.504.967-.893.23-.39.346-.857.346-1.404V9.864h2.315v2.68Zm4.886-4.958V5.507h2.48v2.079h-2.48Z"/></symbol><symbol fill="none" viewBox="0 0 24 24" id="19" xmlns="http://www.w3.org/2000/svg"><path fill="var(--alphabet-svg-bg)" d="M0 12C0 5.373 5.373 0 12 0s12 5.373 12 12-5.373 12-12 12S0 18.627 0 12Z"/><path fill="var(--alphabet-svg-color)" d="M10.64 12.02c.587-.747 1.2-1.287 1.84-1.62.653-.347 1.307-.52 1.96-.52.773 0 1.453.18 2.04.54.6.36 1.06.86 1.38 1.5.333.627.5 1.353.5 2.18 0 .88-.18 1.647-.54 2.3a3.759 3.759 0 0 1-1.54 1.52c-.667.347-1.447.52-2.34.52h-7.1l-.2-2.66H8.1V5.56h2.54v6.46Zm3.3 3.76c.6 0 1.06-.147 1.38-.44.333-.293.5-.707.5-1.24 0-.333-.073-.627-.22-.88a1.383 1.383 0 0 0-.56-.58 1.62 1.62 0 0 0-.8-.2c-.547 0-1.12.273-1.72.82-.587.533-1.26 1.373-2.02 2.52h3.44Z"/></symbol><symbol fill="none" viewBox="0 0 24 24" id="20" xmlns="http://www.w3.org/2000/svg"><path fill="var(--alphabet-svg-bg)" d="M0 12C0 5.373 5.373 0 12 0s12 5.373 12 12-5.373 12-12 12S0 18.627 0 12Z"/><path fill="var(--alphabet-svg-color)" d="M10.64 12.02c.587-.747 1.2-1.287 1.84-1.62.653-.347 1.307-.52 1.96-.52.773 0 1.453.18 2.04.54.6.36 1.06.86 1.38 1.5.333.627.5 1.353.5 2.18 0 .88-.18 1.647-.54 2.3a3.759 3.759 0 0 1-1.54 1.52c-.667.347-1.447.52-2.34.52h-7.1l-.2-2.66H8.1V5.56h2.54v6.46Zm3.3 3.76c.6 0 1.06-.147 1.38-.44.333-.293.5-.707.5-1.24 0-.333-.073-.627-.22-.88a1.383 1.383 0 0 0-.56-.58 1.62 1.62 0 0 0-.8-.2c-.547 0-1.12.273-1.72.82-.587.533-1.26 1.373-2.02 2.52h3.44Zm-.74-7.72V5.78h2.72v2.28H13.2Z"/></symbol><symbol fill="none" viewBox="0 0 24 24" id="21" xmlns="http://www.w3.org/2000/svg"><path fill="var(--alphabet-svg-bg)" d="M0 12C0 5.373 5.373 0 12 0s12 5.373 12 12-5.373 12-12 12S0 18.627 0 12Z"/><path fill="var(--alphabet-svg-color)" d="M9.51 10.95a2.777 2.777 0 0 1-.72-1.06 3.957 3.957 0 0 1-.24-1.4c0-.773.167-1.473.5-2.1a3.799 3.799 0 0 1 1.46-1.48c.627-.36 1.34-.54 2.14-.54.533 0 1.04.073 1.52.22.48.133.987.367 1.52.7l-.84 2.14c-.76-.333-1.487-.5-2.18-.5-.307 0-.58.067-.82.2a1.447 1.447 0 0 0-.76 1.28c0 .48.14.867.42 1.16.28.28.667.42 1.16.42h3.5l-.2 2.68h-3.68c-.453 0-.86.093-1.22.28-.347.2-.62.467-.82.8a2.49 2.49 0 0 0-.28 1.2c0 .68.233 1.187.7 1.52.467.333 1.2.5 2.2.5h3.7l-.22 2.66h-3.58c-1.8 0-3.14-.38-4.02-1.14-.88-.76-1.32-1.907-1.32-3.44 0-.853.187-1.647.56-2.38.373-.733.88-1.307 1.52-1.72Z"/></symbol><symbol fill="none" viewBox="0 0 24 24" id="22" xmlns="http://www.w3.org/2000/svg"><path fill="var(--alphabet-svg-bg)" d="M0 12C0 5.373 5.373 0 12 0s12 5.373 12 12-5.373 12-12 12S0 18.627 0 12Z"/><path fill="var(--alphabet-svg-color)" d="M9.51 12.63a2.777 2.777 0 0 1-.72-1.06 3.957 3.957 0 0 1-.24-1.4c0-.773.167-1.473.5-2.1a3.799 3.799 0 0 1 1.46-1.48c.627-.36 1.34-.54 2.14-.54.533 0 1.04.073 1.52.22.48.133.987.367 1.52.7l-.84 2.14c-.76-.333-1.487-.5-2.18-.5-.307 0-.58.067-.82.2a1.447 1.447 0 0 0-.76 1.28c0 .48.14.867.42 1.16.28.28.667.42 1.16.42h3.5l-.2 2.68h-3.68c-.453 0-.86.093-1.22.28-.347.2-.62.467-.82.8a2.49 2.49 0 0 0-.28 1.2c0 .68.233 1.187.7 1.52.467.333 1.2.5 2.2.5h3.7l-.22 2.66h-3.58c-1.8 0-3.14-.38-4.02-1.14-.88-.76-1.32-1.907-1.32-3.44 0-.853.187-1.647.56-2.38.373-.733.88-1.307 1.52-1.72Zm1.6-7.66V2.69h2.72v2.28h-2.72Z"/></symbol><symbol fill="none" viewBox="0 0 24 24" id="23" xmlns="http://www.w3.org/2000/svg"><path fill="var(--alphabet-svg-bg)" d="M0 12C0 5.373 5.373 0 12 0s12 5.373 12 12-5.373 12-12 12S0 18.627 0 12Z"/><path fill="var(--alphabet-svg-color)" d="M7.78 18.12c-1.213 0-2.14-.313-2.78-.94-.627-.64-.94-1.553-.94-2.74v-3.2H6.6v2.86c0 .453.1.793.3 1.02.213.227.547.34 1 .34h5.3c-.32-.2-.587-.42-.8-.66-.2-.24-.353-.507-.46-.8a3.296 3.296 0 0 1-.14-1c0-.76.173-1.44.52-2.04a3.778 3.778 0 0 1 1.42-1.44c.613-.36 1.313-.54 2.1-.54 1.293 0 2.3.393 3.02 1.18.72.787 1.08 1.873 1.08 3.26v.68c0 1.333-.46 2.34-1.38 3.02-.92.667-2.273 1-4.06 1H7.78Zm9.18-2.86c.16-.173.273-.373.34-.6.067-.24.1-.52.1-.84v-.3c0-.653-.133-1.147-.4-1.48-.267-.347-.66-.52-1.18-.52-.28 0-.533.067-.76.2a1.497 1.497 0 0 0-.54.54c-.12.227-.18.473-.18.74 0 .32.08.607.24.86.16.253.427.493.8.72.387.213.913.44 1.58.68Zm-2.48-7.1V5.88h2.72v2.28h-2.72Z"/></symbol><symbol fill="none" viewBox="0 0 24 24" id="24" xmlns="http://www.w3.org/2000/svg"><path fill="var(--alphabet-svg-bg)" d="M0 12C0 5.373 5.373 0 12 0s12 5.373 12 12-5.373 12-12 12S0 18.627 0 12Z"/><path fill="var(--alphabet-svg-color)" d="M13.16 17.31c.64 0 1.16-.087 1.56-.26.413-.173.713-.42.9-.74.187-.32.287-.7.3-1.14h-1.38c-.973 0-1.76-.133-2.36-.4-.587-.267-1.013-.667-1.28-1.2-.267-.547-.4-1.26-.4-2.14 0-.853.167-1.613.5-2.28a3.742 3.742 0 0 1 1.42-1.56c.613-.373 1.313-.56 2.1-.56 1.213 0 2.173.4 2.88 1.2.707.8 1.06 1.907 1.06 3.32v2.8c0 1.187-.227 2.2-.68 3.04-.453.853-1.087 1.493-1.9 1.92-.8.44-1.74.66-2.82.66h-2.1c-1.733 0-3.073-.5-4.02-1.5-.933-.987-1.4-2.373-1.4-4.16v-4h2.54v3.94c0 1.013.233 1.773.7 2.28.467.52 1.193.78 2.18.78h2.2Zm-.12-5.98c0 .293.047.527.14.7.107.173.273.307.5.4.227.08.54.12.94.12h1.32v-1.04c0-.64-.133-1.127-.4-1.46-.253-.333-.62-.5-1.1-.5-.453 0-.8.167-1.04.5-.24.32-.36.747-.36 1.28Zm1.36-5.02V4.03h2.92v2.28H14.4Zm-2.72 0V4.03h2.92v2.28h-2.92Z"/></symbol><symbol fill="none" viewBox="0 0 24 24" id="25" xmlns="http://www.w3.org/2000/svg"><path fill="var(--alphabet-svg-bg)" d="M0 12C0 5.373 5.373 0 12 0s12 5.373 12 12-5.373 12-12 12S0 18.627 0 12Z"/><path fill="var(--alphabet-svg-color)" d="M14.95 16.27c.413 0 .733-.067.96-.2.227-.133.34-.32.34-.56 0-.213-.053-.407-.16-.58-.093-.173-.26-.38-.5-.62l-4.34-4.24V7.99l7.58-2.92.72 2.48-5.16 1.94 3.12 3.1c.467.48.807.973 1.02 1.48a3.78 3.78 0 0 1 .34 1.6c0 .973-.34 1.76-1.02 2.36-.667.6-1.607.9-2.82.9H8.17c-1.213 0-2.14-.313-2.78-.94-.627-.64-.94-1.553-.94-2.74v-3.2h2.54v2.86c0 .453.1.793.3 1.02.213.227.547.34 1 .34h6.66Z"/></symbol><symbol fill="none" viewBox="0 0 24 24" id="26" xmlns="http://www.w3.org/2000/svg"><path fill="var(--alphabet-svg-bg)" d="M0 12C0 5.373 5.373 0 12 0s12 5.373 12 12-5.373 12-12 12S0 18.627 0 12Z"/><path fill="var(--alphabet-svg-color)" d="m18.01 3.93.44 1.56-7.2 2.9v-1.7l6.76-2.76Zm-3.06 13.48c.413 0 .733-.067.96-.2.227-.133.34-.32.34-.56 0-.213-.053-.407-.16-.58-.093-.173-.26-.38-.5-.62l-4.34-4.24V9.13l7.58-2.92.72 2.48-5.16 1.94 3.12 3.1c.467.48.807.973 1.02 1.48a3.78 3.78 0 0 1 .34 1.6c0 .973-.34 1.76-1.02 2.36-.667.6-1.607.9-2.82.9H8.17c-1.213 0-2.14-.313-2.78-.94-.627-.64-.94-1.553-.94-2.74v-3.2h2.54v2.86c0 .453.1.793.3 1.02.213.227.547.34 1 .34h6.66Z"/></symbol><symbol fill="none" viewBox="0 0 24 24" id="27" xmlns="http://www.w3.org/2000/svg"><path fill="var(--alphabet-svg-bg)" d="M0 12C0 5.373 5.373 0 12 0s12 5.373 12 12-5.373 12-12 12S0 18.627 0 12Z"/><path fill="var(--alphabet-svg-color)" d="M11 20.33c-1.733 0-3.073-.5-4.02-1.5-.933-.987-1.4-2.373-1.4-4.16v-3h2.54v2.94c0 1.013.233 1.773.7 2.28.467.52 1.193.78 2.18.78h.8c.64 0 1.187-.113 1.64-.34.467-.227.82-.553 1.06-.98.253-.427.38-.94.38-1.54V3.67h2.54v10.94c0 1.2-.233 2.227-.7 3.08a4.606 4.606 0 0 1-1.98 1.96c-.84.453-1.82.68-2.94.68H11Z"/></symbol><symbol fill="none" viewBox="0 0 24 24" id="28" xmlns="http://www.w3.org/2000/svg"><path fill="var(--alphabet-svg-bg)" d="M0 12C0 5.373 5.373 0 12 0s12 5.373 12 12-5.373 12-12 12S0 18.627 0 12Z"/><path fill="var(--alphabet-svg-color)" d="M10.29 9.87c0-.293.027-.56.08-.8.067-.253.16-.46.28-.62h-.66c-.56 0-.98.14-1.26.42-.267.28-.4.693-.4 1.24v8H5.79v-8c0-.853.173-1.593.52-2.22a3.569 3.569 0 0 1 1.5-1.48c.653-.347 1.413-.52 2.28-.52h4.32c1.28 0 2.233.313 2.86.94.627.613.94 1.513.94 2.7v1.1c0 1.2-.347 2.12-1.04 2.76-.693.64-1.687.96-2.98.96-1.28 0-2.253-.3-2.92-.9-.653-.613-.98-1.473-.98-2.58v-1Zm4 1.84c.453 0 .8-.087 1.04-.26.24-.187.36-.5.36-.94v-.78c0-.413-.113-.733-.34-.96-.213-.227-.533-.34-.96-.34h-.36c-.4 0-.707.12-.92.36-.2.24-.3.553-.3.94v.68c0 .493.113.833.34 1.02.227.187.607.28 1.14.28Z"/></symbol><symbol fill="none" viewBox="0 0 24 24" id="29" xmlns="http://www.w3.org/2000/svg"><path fill="var(--alphabet-svg-bg)" d="M0 12C0 5.373 5.373 0 12 0s12 5.373 12 12-5.373 12-12 12S0 18.627 0 12Z"/><path fill="var(--alphabet-svg-color)" d="M11.5 18.12c-1.733 0-3.073-.5-4.02-1.5-.933-.987-1.4-2.373-1.4-4.16v-3h2.54v2.94c0 1.013.233 1.773.7 2.28.467.52 1.193.78 2.18.78h.8c.64 0 1.187-.113 1.64-.34.467-.227.82-.553 1.06-.98.253-.427.38-.94.38-1.54V7.46h2.54v4.94c0 1.2-.233 2.227-.7 3.08a4.606 4.606 0 0 1-1.98 1.96c-.84.453-1.82.68-2.94.68h-.8Zm-1.3-8.96V6.88h2.72v2.28H10.2Z"/></symbol><symbol fill="none" viewBox="0 0 24 24" id="30" xmlns="http://www.w3.org/2000/svg"><path fill="var(--alphabet-svg-bg)" d="M0 12C0 5.373 5.373 0 12 0s12 5.373 12 12-5.373 12-12 12S0 18.627 0 12Z"/><path fill="var(--alphabet-svg-color)" d="M16.08 12.85c0 1.173-.213 2.18-.64 3.02a4.33 4.33 0 0 1-1.8 1.92c-.773.453-1.693.68-2.76.68H8.14l-.22-2.66h3.12c.773 0 1.38-.193 1.82-.58.453-.373.68-.887.68-1.54h-1.4c-1.44 0-2.473-.3-3.1-.9-.613-.6-.92-1.553-.92-2.86 0-.853.167-1.613.5-2.28a3.742 3.742 0 0 1 1.42-1.56c.613-.373 1.313-.56 2.1-.56 1.213 0 2.173.4 2.88 1.2.707.8 1.06 1.907 1.06 3.32v2.8Zm-5.44-3.02c0 .293.047.527.14.7.107.173.273.307.5.4.24.08.56.12.96.12h1.3v-1.04c0-.64-.133-1.127-.4-1.46-.253-.333-.613-.5-1.08-.5-.453 0-.807.167-1.06.5-.24.32-.36.747-.36 1.28Z"/></symbol><symbol fill="none" viewBox="0 0 24 24" id="31" xmlns="http://www.w3.org/2000/svg"><path fill="var(--alphabet-svg-bg)" d="M0 12C0 5.373 5.373 0 12 0s12 5.373 12 12-5.373 12-12 12S0 18.627 0 12Z"/><path fill="var(--alphabet-svg-color)" d="M7.88 13.24c0-.467.08-.933.24-1.4.16-.467.413-.953.76-1.46.347-.507.807-1.04 1.38-1.6l-.86-.86 1.8-1.9c1.333 1.173 2.353 2.16 3.06 2.96.707.8 1.193 1.513 1.46 2.14.267.613.4 1.253.4 1.92 0 .773-.18 1.46-.54 2.06-.347.587-.853 1.047-1.52 1.38-.653.333-1.407.5-2.26.5-1.2 0-2.153-.34-2.86-1.02-.707-.693-1.06-1.6-1.06-2.72Zm5.7-.22c0-.28-.053-.553-.16-.82a3.045 3.045 0 0 0-.48-.84 6.222 6.222 0 0 0-.94-.94c-.547.507-.953.98-1.22 1.42-.253.427-.38.853-.38 1.28 0 .347.133.64.4.88.28.227.647.34 1.1.34.333 0 .627-.053.88-.16.267-.12.467-.28.6-.48.133-.2.2-.427.2-.68Z"/></symbol><symbol fill="none" viewBox="0 0 24 24" id="32" xmlns="http://www.w3.org/2000/svg"><path fill="var(--alphabet-svg-bg)" d="M0 12C0 5.373 5.373 0 12 0s12 5.373 12 12-5.373 12-12 12S0 18.627 0 12Z"/><path fill="var(--alphabet-svg-color)" d="M15.73 14.02c0-.28-.087-.487-.26-.62-.173-.147-.427-.22-.76-.22h-3.82V9.26c0-1.2.353-2.16 1.06-2.88.72-.733 1.673-1.1 2.86-1.1h2.72l.16 2.58h-2.86c-.413 0-.747.127-1 .38-.253.24-.38.567-.38.98v1.3h1.68c1.08 0 1.873.287 2.38.86.507.56.76 1.387.76 2.48 0 .867-.247 1.673-.74 2.42-.48.747-1.153 1.34-2.02 1.78-.853.44-1.807.66-2.86.66h-1.5c-1.733 0-3.073-.5-4.02-1.5-.933-.987-1.4-2.373-1.4-4.16v-4h2.54V13c0 1.013.233 1.773.7 2.28.467.52 1.193.78 2.18.78h1.52c.667 0 1.227-.087 1.68-.26.453-.173.793-.413 1.02-.72.24-.307.36-.66.36-1.06Z"/></symbol><symbol fill="none" viewBox="0 0 24 24" id="33" xmlns="http://www.w3.org/2000/svg"><path fill="var(--alphabet-svg-bg)" d="M0 12C0 5.373 5.373 0 12 0s12 5.373 12 12-5.373 12-12 12S0 18.627 0 12Z"/><path fill="var(--alphabet-svg-color)" d="M13.4 10c0-.68-.12-1.18-.36-1.5-.24-.333-.613-.5-1.12-.5-.4 0-.72.113-.96.34-.24.227-.36.52-.36.88 0 .307.047.567.14.78.107.213.293.44.56.68.547.493.927.893 1.14 1.2.213.293.353.62.42.98s.1.927.1 1.7h-2.52c0-.453-.02-.793-.06-1.02a1.503 1.503 0 0 0-.26-.62 7.825 7.825 0 0 0-.68-.78c-.493-.48-.847-.96-1.06-1.44a3.701 3.701 0 0 1-.32-1.52c0-.72.167-1.36.5-1.92.333-.573.8-1.013 1.4-1.32.6-.307 1.28-.46 2.04-.46 1.333 0 2.32.367 2.96 1.1.653.733.98 1.873.98 3.42H13.4Zm-1.76 8.52c-.493 0-.867-.12-1.12-.36-.253-.24-.38-.613-.38-1.12 0-.507.12-.867.36-1.08.253-.213.633-.32 1.14-.32.493 0 .86.107 1.1.32.253.213.38.573.38 1.08 0 .507-.127.88-.38 1.12-.253.24-.62.36-1.1.36Z"/></symbol></svg>