<svg>
   <symbol fill="var(--alphabet-svg-text)" viewBox="0 0 24 24" id="02" xmlns="http://www.w3.org/2000/svg"><path fill="var(--alphabet-svg-bg)" d="M0 12C0 5.373 5.373 0 12 0s12 5.373 12 12-5.373 12-12 12S0 18.627 0 12Z"/><path fill="var(--alphabet-svg-color)" d="M15.31 12.78c.333 0 .6-.087.8-.26.213-.187.32-.44.32-.76v-3.2h2.54v3.34c0 1.107-.327 1.973-.98 2.6s-1.54.94-2.66.94H8.75c-1.213 0-2.14-.313-2.78-.94-.627-.64-.94-1.553-.94-2.74v-3.2h2.54v2.86c0 .453.1.793.3 1.02.213.227.547.34 1 .34h6.44Zm-4.66 6.52v-2.28h2.72v2.28h-2.72Z"/></symbol>
</svg>