<svg xmlns="http://www.w3.org/2000/svg" width="24" height="24" fill="none"><path fill="#4C9AFF" fill-opacity="0.5" fill-rule="evenodd" d="M6.5 11.5a3 3 0 00-3 3v4a3 3 0 003 3h12a3 3 0 003-3v-4a3 3 0 00-3-3h-12zm5.5 8a2.5 2.5 0 100-5 2.5 2.5 0 000 5z" clip-rule="evenodd"></path><path fill="currentColor" fill-rule="evenodd" d="M8.75 16a3.25 3.25 0 116.5 0 3.25 3.25 0 01-6.5 0zM12 14.25a1.75 1.75 0 100 3.5 1.75 1.75 0 000-3.5z" clip-rule="evenodd"></path><path fill="currentColor" fill-rule="evenodd" d="M18.75 9.335V8c0-1.7-.25-3.42-1.29-4.712C16.39 1.961 14.627 1.25 12 1.25s-4.39.71-5.46 2.038C5.5 4.581 5.25 6.3 5.25 8v1.335c-1.165.136-2.104.458-2.78 1.135-.989.988-1.22 2.535-1.22 4.53v2c0 1.995.231 3.542 1.22 4.53.988.989 2.535 1.22 4.53 1.22h10c1.995 0 3.542-.231 4.53-1.22.989-.988 1.22-2.535 1.22-4.53v-2c0-1.995-.231-3.542-1.22-4.53-.677-.677-1.615-.999-2.78-1.135zM7.71 4.23C7 5.11 6.75 6.39 6.75 8v1.251L7 9.25h10l.25.001V8c0-1.61-.25-2.89-.96-3.77-.68-.846-1.918-1.48-4.29-1.48s-3.61.634-4.29 1.48zM2.75 15c0-2.005.269-2.958.78-3.47.512-.511 1.465-.78 3.47-.78h10c2.005 0 2.958.269 3.47.78.511.512.78 1.465.78 3.47v2c0 2.005-.269 2.958-.78 3.47-.512.511-1.465.78-3.47.78H7c-2.005 0-2.958-.269-3.47-.78-.511-.512-.78-1.465-.78-3.47v-2z" clip-rule="evenodd"></path></svg>