<svg width="24" height="24" fill="none" xmlns="http://www.w3.org/2000/svg"><path opacity="0.5" fill-rule="evenodd" clip-rule="evenodd" d="M12.5 3.844c-4.773 0-8.656 3.883-8.656 8.656 0 4.773 3.883 8.656 8.656 8.656 4.773 0 8.656-3.883 8.656-8.656 0-4.773-3.883-8.656-8.656-8.656z" fill="#4C9AFF"></path><path d="M12.646 18.125a.896.896 0 11-1.792 0 .896.896 0 011.792 0zM11.078 14.542a.672.672 0 001.344 0v-.904c0-.285.18-.54.449-.634 1.506-.532 2.686-2.12 2.686-3.613a3.812 3.812 0 00-3.807-3.808 3.812 3.812 0 00-3.807 3.808.672.672 0 001.343 0 2.466 2.466 0 012.464-2.464 2.466 2.466 0 012.464 2.464c0 .827-.72 1.968-1.79 2.345a2.02 2.02 0 00-1.346 1.9v.906z" fill="currentColor"></path><path fill-rule="evenodd" clip-rule="evenodd" d="M11.75 22.5C5.822 22.5 1 17.678 1 11.75S5.822 1 11.75 1 22.5 5.822 22.5 11.75 17.678 22.5 11.75 22.5zm0-20.156c-5.187 0-9.406 4.22-9.406 9.406 0 5.187 4.22 9.406 9.406 9.406 5.187 0 9.406-4.22 9.406-9.406 0-5.187-4.22-9.406-9.406-9.406z" fill="currentColor"></path></svg>